HIERARCHY
ROOT Hips
{
	OFFSET -3.958830 18.904000 13.208200
	CHANNELS 6 Xposition Yposition Zposition Zrotation Yrotation Xrotation 
	JOINT LHipJoint
	{
		OFFSET 0.000000 0.000000 0.000000
		CHANNELS 3 Zrotation Yrotation Xrotation
		JOINT LeftUpLeg
		{
			OFFSET 1.800000 -1.400000 0.085000
			CHANNELS 3 Zrotation Yrotation Xrotation
			JOINT LeftLeg
			{
				OFFSET 2.215000 -6.000000 0.000000
				CHANNELS 3 Zrotation Yrotation Xrotation
				JOINT LeftFoot
				{
					OFFSET 2.500000 -6.900000 0.000000
					CHANNELS 3 Zrotation Yrotation Xrotation
					JOINT LeftToeBase
					{
						OFFSET 0.200000 -0.500000 1.950000
						CHANNELS 3 Zrotation Yrotation Xrotation
						End Site
						{
							OFFSET 0.000000 0.000000 0.000000
						}
					}
				}
			}
		}
	}
	JOINT RHipJoint
	{
		OFFSET 0.000000 0.000000 0.000000
		CHANNELS 3 Zrotation Yrotation Xrotation
		JOINT RightUpLeg
		{
			OFFSET -1.800000 -1.400000 0.085000
			CHANNELS 3 Zrotation Yrotation Xrotation
			JOINT RightLeg
			{
				OFFSET -2.215000 -6.000000 0.000000
				CHANNELS 3 Zrotation Yrotation Xrotation
				JOINT RightFoot
				{
					OFFSET -2.500000 -6.900000 0.000000
					CHANNELS 3 Zrotation Yrotation Xrotation
					JOINT RightToeBase
					{
						OFFSET -0.200000 -0.500000 1.950000
						CHANNELS 3 Zrotation Yrotation Xrotation
						End Site
						{
							OFFSET 0.000000 0.000000 0.000000
						}
					}
				}
			}
		}
	}
	JOINT LowerBack
	{
		OFFSET 0.000000 0.000000 0.000000
		CHANNELS 3 Zrotation Yrotation Xrotation
		JOINT Spine
		{
			OFFSET -0.087000 1.940000 -0.288900
			CHANNELS 3 Zrotation Yrotation Xrotation
			JOINT Spine1
			{
				OFFSET 0.000000 1.950000 0.060000
				CHANNELS 3 Zrotation Yrotation Xrotation
				JOINT Neck
				{
					OFFSET 0.000000 0.000000 0.000000
					CHANNELS 3 Zrotation Yrotation Xrotation
					JOINT Neck1
					{
						OFFSET 0.000000 1.600000 0.340000
						CHANNELS 3 Zrotation Yrotation Xrotation
						JOINT Head
						{
							OFFSET 0.000000 1.667000 -0.240000
							CHANNELS 3 Zrotation Yrotation Xrotation
							End Site
							{
								OFFSET 0.000000 0.000000 0.000000
							}
						}
					}
				}
				JOINT LeftShoulder
				{
					OFFSET 0.000000 0.000000 0.000000
					CHANNELS 3 Zrotation Yrotation Xrotation
					JOINT LeftArm
					{
						OFFSET 2.700000 1.550000 -0.730000
						CHANNELS 3 Zrotation Yrotation Xrotation
						JOINT LeftForeArm
						{
							OFFSET 5.450000 0.000000 0.000000
							CHANNELS 3 Zrotation Yrotation Xrotation
							JOINT LeftHand
							{
								OFFSET 3.450000 0.000000 0.000000
								CHANNELS 3 Zrotation Yrotation Xrotation
								JOINT LeftHandIndex1
								{
									OFFSET 0.750000 0.000000 0.000000
									CHANNELS 3 Zrotation Yrotation Xrotation
									End Site
									{
										OFFSET 0.000000 0.000000 0.000000
									}
								}
							}
						}
					}
				}
				JOINT RightShoulder
				{
					OFFSET 0.000000 0.000000 0.000000
					CHANNELS 3 Zrotation Yrotation Xrotation
					JOINT RightArm
					{
						OFFSET -2.700000 1.550000 -0.730000
						CHANNELS 3 Zrotation Yrotation Xrotation
						JOINT RightForeArm
						{
							OFFSET -5.450000 0.000000 0.000000
							CHANNELS 3 Zrotation Yrotation Xrotation
							JOINT RightHand
							{
								OFFSET -3.450000 0.000000 0.000000
								CHANNELS 3 Zrotation Yrotation Xrotation
								JOINT RightHandIndex1
								{
									OFFSET -0.750000 0.000000 0.000000
									CHANNELS 3 Zrotation Yrotation Xrotation
									End Site
									{
										OFFSET 0.000000 0.000000 0.000000
									}
								}
							}
						}
					}
				}
			}
		}
	}
}
MOTION
Frames: 6
Frame Time: 0.016667
0.411330 9.634950 -0.231130 47.471552 -7.839360 49.057684 -15.153326 3.376678 11.909972 44.086815 1.499808 -60.650028 4.219582 -11.752244 -111.227908 1.379513 3.432762 3.470352 -1.956840 -2.600620 -1.085330 19.900043 -8.563893 1.614140 -6.387819 59.440204 -129.382615 3.552503 -3.425760 -14.789142 0.625704 -0.269944 4.035011 -1.904450 0.617060 0.311750 -6.676126 5.602186 -12.325129 -26.905549 -0.430671 62.985831 39.258402 -29.642196 -50.992150 6.845423 7.070317 -53.825648 8.355711 -0.900479 42.031124 1.686620 5.580940 59.720160 5.732322 -42.588707 0.766013 5.984864 -18.423401 -47.029237 -8.946085 -47.778583 2.252298 -1.023928 5.090769 0.383380 0.127460 -0.031600 -0.324150 -28.112608 57.860324 7.398667 -0.738355 21.181360 -37.836041 -37.662077 44.523672 -6.278415 3.646361 -1.147680 -0.272740 -0.441300 0.903800 0.200200 
0.409000 9.646590 -0.213120 47.872337 -7.175080 48.565707 -15.137399 3.375462 11.794208 43.563623 0.917455 -60.833986 3.612483 -13.026462 -111.155958 1.404238 3.492095 3.448062 -1.949400 -2.593120 -1.079120 19.908441 -8.461927 1.744207 -6.920197 57.696060 -129.323670 3.830100 -3.247510 -15.720024 0.616899 -0.313054 4.022506 -1.899640 0.608210 0.306720 -6.688907 5.606873 -12.341234 -26.606175 -0.812889 64.047005 39.521054 -29.461208 -51.324790 6.915314 6.883413 -54.003727 8.000832 -0.832405 42.356729 1.669800 5.710760 60.175290 5.382051 -42.694877 0.645594 6.017217 -18.144265 -47.762907 -10.895304 -47.707835 2.720676 -0.812724 5.228279 0.387230 0.123060 -0.028620 -0.324690 -27.737194 58.254281 7.270268 -0.894617 20.775578 -38.471060 -36.541464 45.380880 -5.941495 3.522941 -1.155328 -0.272460 -0.442510 0.899640 0.196360 
0.407140 9.653550 -0.206390 48.207771 -6.734483 48.128718 -15.130011 3.380519 11.689320 42.991503 0.632941 -61.290099 2.785363 -14.337881 -110.804481 1.426525 3.570790 3.421046 -1.944110 -2.586570 -1.081230 19.908559 -8.345435 1.889426 -6.510619 56.321269 -128.197301 4.735752 -2.920734 -16.783775 0.611442 -0.356090 4.019719 -1.891520 0.607030 0.297160 -6.683485 5.572171 -12.363265 -26.264146 -0.847932 64.744103 39.682364 -29.142493 -51.371105 7.115487 6.438865 -54.120043 7.025467 -0.362387 42.620099 1.633000 5.996500 60.577380 5.056388 -42.834216 0.674923 6.001481 -18.177783 -47.931051 -11.025047 -47.652463 2.749342 -0.791688 5.222988 0.390380 0.121480 -0.031790 -0.321810 -27.454940 58.564163 6.950252 -1.298052 20.154988 -39.088212 -35.145393 45.979453 -5.462764 3.400191 -1.175870 -0.278140 -0.435950 0.899590 0.194060 
0.405670 9.651730 -0.201100 48.232817 -6.748381 48.217166 -15.122721 3.383736 11.666730 42.643577 0.923345 -61.991871 2.087648 -15.134208 -110.488556 1.457110 3.622840 3.403872 -1.937500 -2.580710 -1.062710 19.911143 -8.340749 1.917043 -4.965490 56.059399 -126.035306 6.461165 -2.403051 -18.074277 0.595929 -0.413227 3.995510 -1.893620 0.599040 0.317240 -6.692886 5.604714 -12.372547 -26.553465 -0.523320 64.752525 40.108807 -29.438570 -51.295758 6.374964 6.933264 -54.451382 8.550531 -1.398828 42.753805 1.489270 5.599060 60.276650 5.659443 -42.824513 0.581555 6.048526 -18.376701 -48.122140 -10.286547 -48.041487 2.496793 -0.834741 5.214767 0.378940 0.126150 -0.023620 -0.327980 -27.420950 58.489472 7.226361 -1.163376 20.163340 -38.690922 -36.120629 45.524848 -5.804438 3.536136 -1.201100 -0.261270 -0.454840 0.891070 0.195010 
0.411190 9.651040 -0.198570 48.113435 -6.672354 48.219789 -15.126483 3.343223 11.705524 43.071612 0.743845 -61.146634 2.977590 -14.323526 -111.071148 1.445353 3.550178 3.428545 -1.927320 -2.569860 -1.042250 19.913350 -8.359116 1.891828 -4.793561 56.312073 -126.024424 6.144599 -2.501360 -17.967264 0.589058 -0.420840 3.976175 -1.892210 0.590120 0.338110 -6.689265 5.667652 -12.378735 -26.604986 -0.230353 64.827508 40.607754 -29.526857 -51.264469 5.643591 7.219614 -54.714616 9.880401 -2.401710 42.925787 1.288730 5.279720 59.858390 5.964352 -42.876457 0.472760 6.004898 -18.533068 -48.266692 -10.320990 -48.437731 2.453244 -0.820271 5.244635 0.365120 0.131180 -0.015520 -0.333660 -27.058376 58.684160 7.198852 -1.360592 19.815300 -38.182420 -36.610637 45.177550 -5.961286 3.662655 -1.224699 -0.242860 -0.473970 0.880950 0.196440 
0.415710 9.643930 -0.202720 47.933508 -6.812682 48.239323 -15.137237 3.282456 11.749433 43.357751 0.900623 -60.511832 3.516147 -13.708280 -111.459344 1.436916 3.496256 3.450486 -1.916610 -2.556570 -1.022390 19.909314 -8.360915 1.894985 -3.700149 56.801438 -124.838491 6.554582 -2.394669 -18.142865 0.582326 -0.430910 3.959094 -1.887730 0.587860 0.365060 -6.674155 5.765291 -12.392384 -26.627277 0.473422 64.712296 41.117355 -29.510804 -51.174603 4.510820 7.355472 -54.976040 11.420353 -3.489757 42.930263 1.054970 4.979460 59.114780 6.181357 -43.126641 0.298103 5.808937 -18.643676 -48.554240 -11.186994 -49.061875 2.598820 -0.725724 5.337977 0.343380 0.143000 -0.010590 -0.338130 -26.157696 58.726649 7.113373 -1.502446 19.375665 -37.926634 -35.349144 45.476530 -5.636965 3.570332 -1.237919 -0.222600 -0.493250 0.871370 0.200870 
